<?xml version="1.0" standalone="no"?>
<!DOCTYPE svg PUBLIC "-//W3C//DTD SVG 20010904//EN"
 "http://www.w3.org/TR/2001/REC-SVG-20010904/DTD/svg10.dtd">
<svg version="1.0" xmlns="http://www.w3.org/2000/svg"
 width="472.000000pt" height="75.000000pt" viewBox="0 0 472.000000 75.000000"
 preserveAspectRatio="xMidYMid meet">

<g transform="translate(0.000000,75.000000) scale(0.100000,-0.100000)"
fill="#000000" stroke="none">
<path d="M331 733 c-27 -22 -331 -510 -331 -531 0 -18 87 -162 108 -179 11 -9
52 -13 122 -13 89 0 110 3 123 18 29 32 327 516 327 530 0 17 -72 136 -103
170 -19 20 -29 22 -123 22 -82 0 -106 -3 -123 -17z m279 -95 c23 -36 39 -72
37 -84 -4 -25 -296 -494 -307 -494 -10 0 -90 125 -90 141 0 15 303 499 312
499 4 0 26 -28 48 -62z"/>
<path d="M2570 455 c0 -14 5 -25 10 -25 6 0 10 -23 10 -50 0 -47 -1 -50 -19
-40 -11 5 -41 10 -66 10 -40 0 -52 -5 -80 -33 -67 -67 -72 -182 -11 -243 44
-44 93 -52 146 -26 31 15 40 16 40 6 0 -11 19 -14 80 -14 79 0 80 0 80 25 0
14 -4 25 -10 25 -6 0 -10 72 -10 195 l0 195 -85 0 c-84 0 -85 0 -85 -25z m15
-259 c0 -64 -3 -81 -17 -90 -26 -16 -41 5 -46 66 -5 70 10 110 41 106 21 -3
22 -8 22 -82z"/>
<path d="M1097 464 c-13 -14 -7 -39 13 -52 19 -11 20 -23 20 -162 0 -139 -1
-150 -20 -160 -11 -6 -20 -20 -20 -30 0 -19 7 -20 120 -20 l120 0 0 24 c0 18
-6 25 -22 28 -21 3 -23 9 -26 71 l-3 69 56 -7 55 -7 0 33 0 34 -55 -3 -55 -4
0 66 0 66 38 0 c43 0 62 -14 62 -47 0 -20 5 -23 35 -23 l36 0 -3 63 -3 62
-171 3 c-93 1 -173 -1 -177 -4z"/>
<path d="M2807 463 c-13 -13 -7 -38 13 -51 19 -11 20 -23 20 -162 0 -139 -1
-150 -20 -160 -11 -6 -20 -20 -20 -30 0 -19 8 -20 153 -20 174 0 216 8 251 51
49 58 18 148 -57 165 l-32 7 25 9 c46 17 70 48 70 90 0 52 -31 82 -99 97 -56
12 -293 15 -304 4z m237 -69 c33 -32 13 -104 -29 -104 -24 0 -25 3 -25 60 0
53 2 60 19 60 11 0 27 -7 35 -16z m16 -183 c26 -49 -6 -127 -48 -119 -14 3
-18 17 -20 71 l-3 67 30 0 c20 0 34 -7 41 -19z"/>
<path d="M558 265 c-43 -69 -78 -129 -77 -133 0 -4 17 -32 37 -62 l38 -55 99
-3 c55 -2 110 0 121 3 25 6 124 155 124 186 0 18 -66 133 -98 172 -12 13 -31
17 -91 17 l-76 0 -77 -125z m282 6 l42 -70 -44 -70 c-23 -39 -47 -71 -53 -71
-13 0 -85 121 -85 143 0 21 80 148 90 142 4 -2 26 -36 50 -74z"/>
<path d="M1500 326 c0 -14 5 -28 10 -31 6 -3 10 -49 10 -101 0 -53 5 -104 11
-116 27 -51 125 -58 174 -12 l25 23 0 -24 c0 -24 2 -25 80 -25 79 0 80 0 80
25 0 14 -4 25 -10 25 -6 0 -10 50 -10 130 l0 130 -90 0 c-88 0 -90 0 -90 -24
0 -13 7 -26 15 -30 12 -4 15 -23 15 -84 0 -83 -13 -111 -45 -98 -12 4 -15 27
-15 121 l0 115 -80 0 c-78 0 -80 -1 -80 -24z"/>
<path d="M1930 326 c0 -14 5 -28 10 -31 6 -3 10 -50 10 -106 0 -59 -4 -99 -10
-99 -5 0 -10 -11 -10 -25 0 -25 0 -25 95 -25 87 0 95 2 95 19 0 11 -4 23 -10
26 -5 3 -10 42 -10 85 0 59 4 83 16 95 9 9 21 14 28 12 15 -5 21 -176 6 -191
-5 -5 -10 -18 -10 -28 0 -16 10 -18 95 -18 87 0 95 2 95 19 0 11 -4 23 -10 26
-5 3 -10 43 -10 89 0 135 -26 176 -114 176 -33 0 -52 -7 -75 -26 l-31 -26 0
26 c0 26 -1 26 -80 26 -78 0 -80 -1 -80 -24z"/>
<path d="M3280 326 c0 -14 5 -28 10 -31 6 -3 10 -50 10 -106 0 -59 -4 -99 -10
-99 -5 0 -10 -11 -10 -25 l0 -25 100 0 c92 0 100 1 100 20 0 10 -7 23 -16 28
-12 6 -14 23 -12 73 l3 64 48 3 48 3 -3 57 c-3 53 -5 57 -29 60 -19 2 -33 -5
-53 -28 l-26 -32 0 31 0 31 -80 0 c-78 0 -80 -1 -80 -24z"/>
<path d="M3642 330 c-40 -18 -43 -22 -40 -52 3 -32 4 -33 55 -36 50 -3 52 -2
55 25 2 22 8 28 28 28 21 0 25 -5 28 -36 3 -36 2 -36 -40 -43 -67 -11 -127
-42 -138 -71 -13 -33 -4 -68 22 -91 27 -26 119 -25 147 0 19 17 21 17 21 3 0
-14 12 -17 80 -17 79 0 80 0 80 25 0 14 -4 25 -10 25 -6 0 -10 33 -10 80 0
100 -16 141 -63 163 -50 24 -159 22 -215 -3z m124 -226 c-3 -8 -15 -14 -26
-14 -29 0 -28 53 3 75 21 15 22 15 25 -16 2 -17 1 -37 -2 -45z"/>
<path d="M3960 325 c0 -14 4 -25 9 -25 5 0 29 -58 53 -130 l42 -130 72 0 72 0
42 125 c23 69 46 127 51 130 5 4 9 17 9 31 0 23 -3 24 -55 24 -52 0 -55 -1
-55 -25 0 -16 6 -25 16 -25 12 0 14 -7 9 -32 -14 -62 -43 -133 -48 -118 -3 8
-13 40 -23 70 -9 30 -19 61 -22 68 -2 6 3 12 12 12 10 0 16 9 16 25 l0 25
-100 0 -100 0 0 -25z"/>
<path d="M4435 336 c-132 -57 -121 -250 17 -291 61 -18 80 -18 132 -4 38 10
86 49 86 68 0 6 -9 15 -20 21 -17 9 -24 7 -39 -11 -13 -16 -29 -23 -55 -23
-41 0 -52 8 -61 47 l-7 27 96 0 96 0 0 33 c0 45 -29 98 -69 124 -39 27 -126
31 -176 9z m105 -55 c5 -11 10 -29 10 -40 0 -17 -6 -21 -30 -21 -24 0 -30 4
-30 21 0 25 17 59 30 59 5 0 14 -9 20 -19z"/>
</g>
</svg>
