<svg preserveAspectRatio="none" overflow="visible" style="display: block;" width="60" height="60" viewBox="0 0 60 60" fill="none" xmlns="http://www.w3.org/2000/svg">
<g id="Frame">
<path id="Vector" d="M16.875 5C10.3166 5 5 10.3166 5 16.875C5 23.4334 10.3166 28.75 16.875 28.75H26.875C27.9105 28.75 28.75 27.9105 28.75 26.875V16.875C28.75 10.3166 23.4334 5 16.875 5ZM8.75 16.875C8.75 12.3877 12.3877 8.75 16.875 8.75C21.3623 8.75 25 12.3877 25 16.875V25H16.875C12.3877 25 8.75 21.3623 8.75 16.875ZM16.875 55C10.3166 55 5 49.6835 5 43.125C5 36.5665 10.3166 31.25 16.875 31.25H26.875C27.9105 31.25 28.75 32.0895 28.75 33.125V43.125C28.75 49.6835 23.4334 55 16.875 55ZM8.75 43.125C8.75 47.6122 12.3877 51.25 16.875 51.25C21.3623 51.25 25 47.6122 25 43.125V35H16.875C12.3877 35 8.75 38.6378 8.75 43.125ZM55 16.875C55 10.3166 49.6835 5 43.125 5C36.5665 5 31.25 10.3166 31.25 16.875V26.875C31.25 27.9105 32.0895 28.75 33.125 28.75H43.125C49.6835 28.75 55 23.4334 55 16.875ZM43.125 8.75C47.6122 8.75 51.25 12.3877 51.25 16.875C51.25 21.3623 47.6122 25 43.125 25H35V16.875C35 12.3877 38.6378 8.75 43.125 8.75ZM43.125 55C49.6835 55 55 49.6835 55 43.125C55 36.5665 49.6835 31.25 43.125 31.25H33.125C32.0895 31.25 31.25 32.0895 31.25 33.125V43.125C31.25 49.6835 36.5665 55 43.125 55ZM51.25 43.125C51.25 47.6122 47.6122 51.25 43.125 51.25C38.6378 51.25 35 47.6122 35 43.125V35H43.125C47.6122 35 51.25 38.6378 51.25 43.125Z" fill="#FAFAF9"/>
</g>
</svg>
